<svg xmlns="http://www.w3.org/2000/svg" viewBox="0 0 135.452 135.448">
  <defs>
    <style>
      .cls-1 {
        fill: #232931;
      }

      .cls-2 {
        fill: #f73859;
      }
    </style>
  </defs>
  <g id="Group_12" data-name="Group 12" transform="translate(0 -0.003)">
    <path id="Path_14" data-name="Path 14" class="cls-1" d="M134.02,83.677a2.278,2.278,0,0,0-2.485.542l-9.645,10.136V34.162h.01l9.2-9.932a2.261,2.261,0,0,0-.123-3.191h0l-3.314-3.079,4.6-4.971a2.261,2.261,0,0,0-.123-3.191L122.206.6a2.261,2.261,0,0,0-3.191.123L102.967,18.053H24.824A11.308,11.308,0,0,0,13.532,6.761h-2.26A11.3,11.3,0,0,0,0,18.053v97.065a2.261,2.261,0,0,0,2.26,2.26H36.433l-4.746,5.7a2.265,2.265,0,0,0,.286,3.181l10.412,8.663a2.265,2.265,0,0,0,3.181-.286h0l11.558-13.88a6.735,6.735,0,0,0,1.483-3.365H99.97L86.408,131.637a2.261,2.261,0,0,0,1.637,3.815h45.147a2.261,2.261,0,0,0,2.26-2.26V85.773A2.291,2.291,0,0,0,134.02,83.677ZM126.267,22.8,121.9,27.524V24.2l2.71-2.935Zm-8.878-.409v.031l-19.1,20.64-6.628-6.137,23-24.854,6.628,6.137L117.419,22.4h-.031Zm-23.433,22.8L88.76,46.7l1.1-5.3ZM120.795,5.441l6.628,6.127-3.068,3.324-6.628-6.137Zm-109.5,5.84h2.26a6.766,6.766,0,0,1,6.771,6.771v85.835a11.2,11.2,0,0,0-6.771-2.322h-2.26a11.116,11.116,0,0,0-6.771,2.322V18.053A6.759,6.759,0,0,1,11.292,11.282Zm0,94.815h2.26a6.773,6.773,0,0,1,6.771,6.771H4.511A6.775,6.775,0,0,1,11.292,106.1Zm42.365,11.762L52.215,119.6l-6.935-5.779,1.442-1.739a2.256,2.256,0,0,1,3.181-.286h0l3.467,2.884a2.263,2.263,0,0,1,.286,3.181ZM43.541,130,36.6,124.221l5.779-6.945,6.935,5.779Zm14.115-17.132a6.814,6.814,0,0,0-1.4-1.657l-3.467-2.884a6.778,6.778,0,0,0-9.543.869l-3.058,3.672H24.834V22.574H98.8L86.817,35.512a2.165,2.165,0,0,0-.4.655,1.09,1.09,0,0,0-.072.194c-.02.072-.051.133-.072.2l-2.69,12.887a2.26,2.26,0,0,0,1.749,2.67,2.333,2.333,0,0,0,1.094-.041L99.07,48.4c.061-.02.113-.051.164-.072a1.331,1.331,0,0,0,.174-.082,2.091,2.091,0,0,0,.675-.481l17.306-18.707V99.08l-13.113,13.767H57.656Zm73.275,18.053H93.3l37.629-39.5v39.5Z" transform="translate(0 0)"/>
    <path id="Path_15" data-name="Path 15" class="cls-1" d="M103.9,122.652a2.265,2.265,0,0,0,2.087,1.391h15.8a2.261,2.261,0,0,0,2.26-2.26v-15.8a2.261,2.261,0,0,0-2.26-2.26,2.236,2.236,0,0,0-1.6.665l-15.8,15.8A2.269,2.269,0,0,0,103.9,122.652Zm15.629-11.22v8.09h-8.09Z" transform="translate(2.367 2.367)"/>
    <path id="Path_16" data-name="Path 16" class="cls-2" d="M98.571,84.766h-15.8V59.943a2.261,2.261,0,0,0-.665-1.6L68.561,44.795a2.259,2.259,0,0,0-3.191,0L51.828,58.337a2.287,2.287,0,0,0-.655,1.6V84.766H35.36a2.26,2.26,0,1,0,0,4.521h63.21a2.26,2.26,0,0,0,0-4.521ZM66.965,49.581l8.09,8.09H58.875ZM55.684,62.193H78.257V84.766H55.684Z" transform="translate(0.755 1.007)"/>
    <path id="Path_17" data-name="Path 17" class="cls-1" d="M64,35.31h4.521v4.511H64Z" transform="translate(1.46 0.806)"/>
    <path id="Path_18" data-name="Path 18" class="cls-1" d="M64,92.69h4.521V97.2H64Z" transform="translate(1.46 2.115)"/>
  </g>
</svg>
