<?xml version="1.0" encoding="utf-8"?>
<!-- Generator: Adobe Illustrator 23.0.0, SVG Export Plug-In . SVG Version: 6.00 Build 0)  -->
<svg version="1.1" id="Layer_1" xmlns="http://www.w3.org/2000/svg" xmlns:xlink="http://www.w3.org/1999/xlink" x="0px" y="0px"
	 viewBox="0 0 827 1216" style="enable-background:new 0 0 827 1216;" xml:space="preserve">
<image style="overflow:visible;enable-background:new    ;" width="827" height="1216" id="Hige" xlink:href="F692FCB1EEC40278.png" >
</image>
<image style="overflow:visible;enable-background:new    ;" width="181" height="97" id="EyeBrow-r" xlink:href="F692FCB1EEC40279.png"  transform="matrix(1 0 0 1 182 512)">
</image>
<image style="overflow:visible;enable-background:new    ;" width="181" height="97" id="EyeBrow-r_1_" xlink:href="F692FCB1EEC4027F.png"  transform="matrix(-1 0 0 1 648.5356 512)">
</image>
<image style="overflow:visible;enable-background:new    ;" width="137" height="56" id="Eye-l" xlink:href="F692FCB1EEC4027A.png"  transform="matrix(1 0 0 1 491 628)">
</image>
<image style="overflow:visible;enable-background:new    ;" width="228" height="18" id="Mouse" xlink:href="F692FCB1EEC4027B.png"  transform="matrix(1 0 0 1 290 994)">
</image>
<image style="overflow:visible;enable-background:new    ;" width="103" height="61" id="Eye-l-2" xlink:href="F692FCB1EEC40276.png"  transform="matrix(1 0 0 1 502.5 612)">
</image>
<image style="overflow:visible;enable-background:new    ;" width="137" height="56" id="Eye-l_1_" xlink:href="F692FCB1EEC40277.png"  transform="matrix(-0.9995 -3.158464e-02 -3.158464e-02 0.9995 343.5882 625.6714)">
</image>
<image style="overflow:visible;enable-background:new    ;" width="103" height="61" id="Eye-l-2_1_" xlink:href="F692FCB1EEC40288.png"  transform="matrix(-0.9995 -3.158464e-02 -3.158464e-02 0.9995 332.5993 609.3162)">
</image>
</svg>
