<?xml version="1.0" encoding="utf-8"?>
<!-- Generator: Adobe Illustrator 23.0.0, SVG Export Plug-In . SVG Version: 6.00 Build 0)  -->
<svg version="1.1" id="Layer_1" xmlns="http://www.w3.org/2000/svg" xmlns:xlink="http://www.w3.org/1999/xlink" x="0px" y="0px"
	 viewBox="0 0 1280 1024" style="enable-background:new 0 0 1280 1024;" xml:space="preserve">
<style type="text/css">
	.st0{fill:url(#SVGID_1_);}
	.st1{fill:url(#SVGID_2_);}
	.st2{fill:url(#SVGID_3_);}
	.st3{fill:url(#SVGID_4_);}
	.st4{fill:url(#SVGID_5_);}
	.st5{fill:url(#SVGID_6_);}
	.st6{fill:url(#SVGID_7_);}
	.st7{fill:url(#SVGID_8_);}
	.st8{fill:url(#SVGID_9_);}
	.st9{fill:url(#SVGID_10_);}
	.st10{fill:url(#SVGID_11_);}
	.st11{fill:url(#SVGID_12_);}
	.st12{fill:url(#SVGID_13_);}
	.st13{fill:url(#SVGID_14_);}
	.st14{fill:url(#SVGID_15_);}
	.st15{fill:url(#SVGID_16_);}
	.st16{fill:url(#SVGID_17_);}
	.st17{fill:url(#SVGID_18_);}
	.st18{fill:url(#SVGID_19_);}
	.st19{fill:#1A1A1A;}
	.st20{fill:url(#SVGID_20_);}
	.st21{fill:url(#SVGID_21_);}
	.st22{fill:url(#SVGID_22_);}
	.st23{fill:url(#SVGID_23_);}
	.st24{fill:none;stroke:#3D3D3D;stroke-miterlimit:10;}
</style>
<g>
	<linearGradient id="SVGID_1_" gradientUnits="userSpaceOnUse" x1="639.4839" y1="530.6406" x2="639.4839" y2="1483.4823">
		<stop  offset="0" style="stop-color:#FECD00"/>
		<stop  offset="0.3523" style="stop-color:#FF6D00"/>
	</linearGradient>
	<path class="st0" d="M987.19,484.76c-33.58-32.04-71.52-59.41-112.91-81.22c-40.49-21.37-84.25-37.35-130.35-47.06
		c-33.71-7.12-68.63-10.84-104.45-10.84c-35.82,0-70.78,3.76-104.49,10.84c-46.1,9.71-89.86,25.73-130.35,47.11
		c-41.35,21.76-79.33,49.18-112.87,81.17c-57.36,54.58-101.9,122.58-128.53,199.01c23.82-3.54,48.21-5.31,73.03-5.31
		c17.61,0,34.96,0.91,52.1,2.63c20.85,2.16,41.35,5.57,61.37,10.19c60.64,13.95,117.09,38.82,167.2,72.5
		c8.89,5.92,17.52,12.13,25.98,18.65c20.59,15.76,39.92,33.07,57.75,51.81v-0.52c0-21.42,17.35-38.82,38.8-38.82
		c21.41,0,38.8,17.4,38.8,38.82v0.52c17.83-18.74,37.16-36.05,57.75-51.77c8.42-6.52,17.09-12.74,25.94-18.7
		c50.11-33.64,106.56-58.55,167.25-72.5c20.03-4.62,40.53-8.03,61.37-10.19c17.13-1.73,34.49-2.63,52.1-2.63
		c24.82,0,49.2,1.77,73.03,5.31C1089.09,607.34,1044.55,539.33,987.19,484.76z M559.72,638.08c-32.03-23.4-71.52-37.22-114.25-37.22
		c-15.54,0-30.64,1.81-45.1,5.27c-4.62,1.12-9.15,2.37-13.64,3.8c2.72-2.55,5.52-4.97,8.5-7.17c19.55-15.11,44.11-24.05,70.74-24.05
		c20.5,0,39.75,5.31,56.5,14.64c0.04,0,0.04,0.04,0.09,0.04s0.04,0,0.09,0.09c0.04-0.04,0.04-0.04,0.09,0.04
		c6.82,3.76,13.25,8.29,19.12,13.38c0,0,0.09,0,0.09,0.09c7.42,6.3,13.98,13.6,19.55,21.63c4.32,6.13,8.03,12.74,11.05,19.69
		C568.44,644.69,564.17,641.28,559.72,638.08z M878.55,606.13c-14.46-3.45-29.57-5.27-45.1-5.27c-42.73,0-82.22,13.82-114.25,37.22
		c-4.45,3.2-8.72,6.61-12.82,10.23c3.02-6.95,6.73-13.56,11.05-19.69c5.61-8.12,12.26-15.46,19.72-21.8
		c0.04-0.09,0.09-0.13,0.13-0.09c5.83-5.05,12.13-9.46,18.86-13.17c0-0.09,0.04-0.04,0.04-0.04c16.79-9.46,36.17-14.81,56.76-14.81
		c26.59,0,51.19,8.94,70.78,24.01c2.93,2.25,5.74,4.62,8.46,7.21C887.7,608.5,883.17,607.25,878.55,606.13z"/>
	<linearGradient id="SVGID_2_" gradientUnits="userSpaceOnUse" x1="737.2865" y1="600.1496" x2="756.1472" y2="600.1496">
		<stop  offset="0" style="stop-color:#FECD00"/>
		<stop  offset="0.6828" style="stop-color:#FF6D00"/>
	</linearGradient>
	<path class="st1" d="M756.15,593.56c-6.13,4.66-12.39,9.07-18.86,13.17C743.11,601.68,749.41,597.28,756.15,593.56z"/>
	<linearGradient id="SVGID_3_" gradientUnits="userSpaceOnUse" x1="878.5518" y1="606.3239" x2="892.1902" y2="606.3239">
		<stop  offset="0" style="stop-color:#FECD00"/>
		<stop  offset="0.6828" style="stop-color:#FF6D00"/>
	</linearGradient>
	<path class="st2" d="M892.19,609.93c-4.49-1.42-9.02-2.68-13.64-3.8c1.73-1.08,3.5-2.25,5.18-3.41
		C886.67,604.96,889.47,607.34,892.19,609.93z"/>
	<linearGradient id="SVGID_4_" gradientUnits="userSpaceOnUse" x1="743.9329" y1="304.621" x2="1020.0331" y2="304.621">
		<stop  offset="0" style="stop-color:#FECD00"/>
		<stop  offset="0.6828" style="stop-color:#FF6D00"/>
	</linearGradient>
	<path class="st3" d="M1020.03,345.64c0,50-11.83,97.28-32.85,139.12c-33.58-32.04-71.52-59.41-112.91-81.22
		c-40.49-21.37-84.25-37.35-130.35-47.06c22.92-58.89,56.63-112.39,98.67-158.12c25.42-27.68,53.86-52.5,84.9-73.88
		C984.64,180.79,1020.03,259.07,1020.03,345.64z"/>
	<linearGradient id="SVGID_5_" gradientUnits="userSpaceOnUse" x1="386.7338" y1="606.3456" x2="400.3728" y2="606.3456">
		<stop  offset="0" style="stop-color:#FECD00"/>
		<stop  offset="0.6828" style="stop-color:#FF6D00"/>
	</linearGradient>
	<path class="st4" d="M400.37,606.13c-4.62,1.12-9.15,2.37-13.64,3.8c2.72-2.55,5.52-4.97,8.5-7.17
		C396.92,603.88,398.65,605.05,400.37,606.13z"/>
	<linearGradient id="SVGID_6_" gradientUnits="userSpaceOnUse" x1="522.7336" y1="600.2144" x2="541.8541" y2="600.2144">
		<stop  offset="0" style="stop-color:#FECD00"/>
		<stop  offset="0.6828" style="stop-color:#FF6D00"/>
	</linearGradient>
	<path class="st5" d="M541.85,606.91c-6.56-4.23-12.95-8.68-19.12-13.38C529.55,597.28,535.98,601.81,541.85,606.91z"/>
	<linearGradient id="SVGID_7_" gradientUnits="userSpaceOnUse" x1="737.2865" y1="600.1496" x2="756.1472" y2="600.1496">
		<stop  offset="0" style="stop-color:#FECD00"/>
		<stop  offset="0.6828" style="stop-color:#FF6D00"/>
	</linearGradient>
	<path class="st6" d="M756.15,593.56c-6.13,4.66-12.39,9.07-18.86,13.17C743.11,601.68,749.41,597.28,756.15,593.56z"/>
	<linearGradient id="SVGID_8_" gradientUnits="userSpaceOnUse" x1="878.5518" y1="606.3239" x2="892.1902" y2="606.3239">
		<stop  offset="0" style="stop-color:#FECD00"/>
		<stop  offset="0.6828" style="stop-color:#FF6D00"/>
	</linearGradient>
	<path class="st7" d="M892.19,609.93c-4.49-1.42-9.02-2.68-13.64-3.8c1.73-1.08,3.5-2.25,5.18-3.41
		C886.67,604.96,889.47,607.34,892.19,609.93z"/>
	<linearGradient id="SVGID_9_" gradientUnits="userSpaceOnUse" x1="522.7336" y1="600.2144" x2="541.8541" y2="600.2144">
		<stop  offset="0" style="stop-color:#FECD00"/>
		<stop  offset="0.6828" style="stop-color:#FF6D00"/>
	</linearGradient>
	<path class="st8" d="M541.85,606.91c-6.56-4.23-12.95-8.68-19.12-13.38C529.55,597.28,535.98,601.81,541.85,606.91z"/>
	<linearGradient id="SVGID_10_" gradientUnits="userSpaceOnUse" x1="737.2865" y1="600.1496" x2="756.1472" y2="600.1496">
		<stop  offset="0" style="stop-color:#FECD00"/>
		<stop  offset="0.6828" style="stop-color:#FF6D00"/>
	</linearGradient>
	<path class="st9" d="M756.15,593.56c-6.13,4.66-12.39,9.07-18.86,13.17C743.11,601.68,749.41,597.28,756.15,593.56z"/>
	<linearGradient id="SVGID_11_" gradientUnits="userSpaceOnUse" x1="969.5232" y1="280.4306" x2="785.4378" y2="486.291">
		<stop  offset="0" style="stop-color:#FECD00"/>
		<stop  offset="0.6828" style="stop-color:#FF6D00"/>
	</linearGradient>
	<path class="st10" d="M1020.03,345.64c0,50-11.83,97.28-32.85,139.12c-33.58-32.04-71.52-59.41-112.91-81.22
		c-40.49-21.37-84.25-37.35-130.35-47.06c22.92-58.89,56.63-112.39,98.67-158.12c25.42-27.68,53.86-52.5,84.9-73.88
		C984.64,180.79,1020.03,259.07,1020.03,345.64z"/>
	<linearGradient id="SVGID_12_" gradientUnits="userSpaceOnUse" x1="386.7338" y1="606.3456" x2="400.3728" y2="606.3456">
		<stop  offset="0" style="stop-color:#FECD00"/>
		<stop  offset="0.6828" style="stop-color:#FF6D00"/>
	</linearGradient>
	<path class="st11" d="M400.37,606.13c-4.62,1.12-9.15,2.37-13.64,3.8c2.72-2.55,5.52-4.97,8.5-7.17
		C396.92,603.88,398.65,605.05,400.37,606.13z"/>
	<linearGradient id="SVGID_13_" gradientUnits="userSpaceOnUse" x1="522.7336" y1="600.2144" x2="541.8541" y2="600.2144">
		<stop  offset="0" style="stop-color:#FECD00"/>
		<stop  offset="0.6828" style="stop-color:#FF6D00"/>
	</linearGradient>
	<path class="st12" d="M541.85,606.91c-6.56-4.23-12.95-8.68-19.12-13.38C529.55,597.28,535.98,601.81,541.85,606.91z"/>
	<linearGradient id="SVGID_14_" gradientUnits="userSpaceOnUse" x1="522.7336" y1="600.2144" x2="541.8541" y2="600.2144">
		<stop  offset="0" style="stop-color:#FECD00"/>
		<stop  offset="0.6828" style="stop-color:#FF6D00"/>
	</linearGradient>
	<path class="st13" d="M541.85,606.91c-6.56-4.23-12.95-8.68-19.12-13.38C529.55,597.28,535.98,601.81,541.85,606.91z"/>
	<linearGradient id="SVGID_15_" gradientUnits="userSpaceOnUse" x1="737.2865" y1="600.1496" x2="756.1472" y2="600.1496">
		<stop  offset="0" style="stop-color:#FECD00"/>
		<stop  offset="0.6828" style="stop-color:#FF6D00"/>
	</linearGradient>
	<path class="st14" d="M756.15,593.56c-6.13,4.66-12.39,9.07-18.86,13.17C743.11,601.68,749.41,597.28,756.15,593.56z"/>
	<linearGradient id="SVGID_16_" gradientUnits="userSpaceOnUse" x1="845.1005" y1="310.917" x2="736.338" y2="392.183">
		<stop  offset="0" style="stop-color:#FECD00"/>
		<stop  offset="0.6828" style="stop-color:#FF6D00"/>
	</linearGradient>
	<path class="st15" d="M879.67,345.64c0,19.78-1.86,39.16-5.4,57.9c-40.49-21.37-84.25-37.35-130.35-47.06
		c22.92-58.89,56.63-112.39,98.67-158.12C866.25,242.19,879.67,292.36,879.67,345.64z"/>
	
		<linearGradient id="SVGID_17_" gradientUnits="userSpaceOnUse" x1="1722.2526" y1="304.621" x2="1998.3528" y2="304.621" gradientTransform="matrix(-1 0 0 1 2257.2864 0)">
		<stop  offset="0" style="stop-color:#FECD00"/>
		<stop  offset="0.6828" style="stop-color:#FF6D00"/>
	</linearGradient>
	<path class="st16" d="M258.93,345.64c0,50,11.83,97.28,32.85,139.12c33.58-32.04,71.52-59.41,112.91-81.22
		c40.49-21.37,84.25-37.35,130.35-47.06c-22.92-58.89-56.63-112.39-98.67-158.12c-25.42-27.68-53.86-52.5-84.9-73.88
		C294.33,180.79,258.93,259.07,258.93,345.64z"/>
	
		<linearGradient id="SVGID_18_" gradientUnits="userSpaceOnUse" x1="1947.8429" y1="280.4306" x2="1763.7576" y2="486.291" gradientTransform="matrix(-1 0 0 1 2257.2864 0)">
		<stop  offset="0" style="stop-color:#FECD00"/>
		<stop  offset="0.6828" style="stop-color:#FF6D00"/>
	</linearGradient>
	<path class="st17" d="M258.93,345.64c0,50,11.83,97.28,32.85,139.12c33.58-32.04,71.52-59.41,112.91-81.22
		c40.49-21.37,84.25-37.35,130.35-47.06c-22.92-58.89-56.63-112.39-98.67-158.12c-25.42-27.68-53.86-52.5-84.9-73.88
		C294.33,180.79,258.93,259.07,258.93,345.64z"/>
	
		<linearGradient id="SVGID_19_" gradientUnits="userSpaceOnUse" x1="1823.4202" y1="310.917" x2="1714.6577" y2="392.183" gradientTransform="matrix(-1 0 0 1 2257.2864 0)">
		<stop  offset="0" style="stop-color:#FECD00"/>
		<stop  offset="0.6828" style="stop-color:#FF6D00"/>
	</linearGradient>
	<path class="st18" d="M399.29,345.64c0,19.78,1.86,39.16,5.4,57.9c40.49-21.37,84.25-37.35,130.35-47.06
		c-22.92-58.89-56.63-112.39-98.67-158.12C412.72,242.19,399.29,292.36,399.29,345.64z"/>
	<path class="st19" d="M883.73,602.72c-1.68,1.17-3.45,2.33-5.18,3.41c-14.46-3.45-29.57-5.27-45.1-5.27
		c-42.73,0-82.22,13.82-114.25,37.22c-4.45,3.2-8.72,6.61-12.82,10.23c3.02-6.95,6.73-13.56,11.05-19.69
		c5.61-8.12,12.26-15.46,19.72-21.8c0.04-0.09,0.09-0.13,0.13-0.09c6.47-4.1,12.73-8.51,18.86-13.17c0-0.09,0.04-0.04,0.04-0.04
		c16.79-9.46,36.17-14.81,56.76-14.81C839.53,578.71,864.14,587.65,883.73,602.72z"/>
	<linearGradient id="SVGID_20_" gradientUnits="userSpaceOnUse" x1="737.2865" y1="600.1496" x2="756.1472" y2="600.1496">
		<stop  offset="0" style="stop-color:#FECD00"/>
		<stop  offset="0.6828" style="stop-color:#FF6D00"/>
	</linearGradient>
	<path class="st20" d="M756.15,593.56c-6.13,4.66-12.39,9.07-18.86,13.17C743.11,601.68,749.41,597.28,756.15,593.56z"/>
	<linearGradient id="SVGID_21_" gradientUnits="userSpaceOnUse" x1="878.5518" y1="606.3239" x2="892.1902" y2="606.3239">
		<stop  offset="0" style="stop-color:#FECD00"/>
		<stop  offset="0.6828" style="stop-color:#FF6D00"/>
	</linearGradient>
	<path class="st21" d="M892.19,609.93c-4.49-1.42-9.02-2.68-13.64-3.8c1.73-1.08,3.5-2.25,5.18-3.41
		C886.67,604.96,889.47,607.34,892.19,609.93z"/>
	<path class="st19" d="M572.54,648.31c-4.1-3.63-8.37-7.04-12.82-10.23c-32.03-23.4-71.52-37.22-114.25-37.22
		c-15.54,0-30.64,1.81-45.1,5.27c-1.73-1.08-3.45-2.25-5.14-3.37c19.55-15.11,44.11-24.05,70.74-24.05c20.5,0,39.75,5.31,56.5,14.64
		c0.04,0,0.04,0.04,0.09,0.04s0.04,0,0.09,0.09c0.04-0.04,0.04-0.04,0.09,0.04c6.17,4.71,12.56,9.15,19.12,13.38
		c0,0,0.09,0,0.09,0.09c7.42,6.3,13.98,13.6,19.55,21.63C565.81,634.76,569.52,641.36,572.54,648.31z"/>
	<linearGradient id="SVGID_22_" gradientUnits="userSpaceOnUse" x1="386.7338" y1="606.3456" x2="400.3728" y2="606.3456">
		<stop  offset="0" style="stop-color:#FECD00"/>
		<stop  offset="0.6828" style="stop-color:#FF6D00"/>
	</linearGradient>
	<path class="st22" d="M400.37,606.13c-4.62,1.12-9.15,2.37-13.64,3.8c2.72-2.55,5.52-4.97,8.5-7.17
		C396.92,603.88,398.65,605.05,400.37,606.13z"/>
	<linearGradient id="SVGID_23_" gradientUnits="userSpaceOnUse" x1="522.7336" y1="600.2144" x2="541.8541" y2="600.2144">
		<stop  offset="0" style="stop-color:#FECD00"/>
		<stop  offset="0.6828" style="stop-color:#FF6D00"/>
	</linearGradient>
	<path class="st23" d="M541.85,606.91c-6.56-4.23-12.95-8.68-19.12-13.38C529.55,597.28,535.98,601.81,541.85,606.91z"/>
	<path class="st19" d="M678.28,833.72v0.52c-9.15,9.5-17.87,19.34-26.2,29.58c-2.24,2.72-4.45,5.48-6.6,8.29
		c-2.07,2.59-4.06,5.18-6,7.77c-1.94-2.59-3.93-5.18-6-7.77c-2.16-2.81-4.36-5.57-6.6-8.29c-8.33-10.23-17.05-20.08-26.2-29.58
		v-0.52c0-21.42,17.35-38.82,38.8-38.82C660.89,794.9,678.28,812.3,678.28,833.72z"/>
</g>
<path class="st24" d="M1072.49,1024c-136.14-39.74-248.47-135.36-310.5-260.37c-33.51-67.51-52.34-143.58-52.34-224.06
	c0-64.64,12.15-126.44,34.3-183.23C817.25,168.26,1000.08,35,1214.03,35c22.36,0,44.38,1.46,65.97,4.28"/>
<path class="st24" d="M563.84,1024c17.37-52.43,43.11-101.05,75.65-144.27c34.01-45.21,75.45-84.52,122.5-116.1
	c80.24-53.87,176.8-85.3,280.7-85.3c24.82,0,49.21,1.79,73.07,5.26c58.62,8.51,113.97,27.1,164.24,53.97"/>
<path class="st24" d="M0,737.01c50-26.57,104.99-44.97,163.21-53.42c23.86-3.47,48.25-5.26,73.07-5.26
	c103.9,0,200.46,31.43,280.7,85.3c47.05,31.59,88.49,70.89,122.51,116.1c32.53,43.22,58.27,91.84,75.64,144.27"/>
<path class="st24" d="M1113.09,1024c19.91-54.22,30.77-112.8,30.77-173.93c0-58.34-9.89-114.36-28.1-166.48
	c-57.58-164.85-198.26-290.68-371.81-327.25c-33.7-7.1-68.65-10.84-104.47-10.84s-70.76,3.73-104.46,10.84
	c-173.55,36.56-314.23,162.4-371.81,327.25c-18.21,52.12-28.1,108.14-28.1,166.48c0,61.13,10.86,119.71,30.77,173.93"/>
<ellipse class="st24" cx="709.65" cy="345.5" rx="310.38" ry="310.5"/>
<path class="st24" d="M0,39.14C21.26,36.41,42.94,35,64.94,35c213.95,0,396.78,133.26,470.08,321.34
	c22.15,56.79,34.3,118.59,34.3,183.23c0,80.48-18.83,156.55-52.34,224.06C454.95,888.64,342.62,984.26,206.48,1024"/>
<ellipse class="st24" cx="569.32" cy="345.5" rx="310.38" ry="310.5"/>
<ellipse class="st24" cx="833.47" cy="794.76" rx="193.99" ry="194.06"/>
<ellipse class="st24" cx="812.96" cy="695" rx="116.39" ry="116.44"/>
<ellipse class="st24" cx="445.49" cy="794.76" rx="193.99" ry="194.06"/>
<ellipse class="st24" cx="466.01" cy="695" rx="116.39" ry="116.44"/>
<ellipse class="st24" cx="639.48" cy="833.58" rx="38.8" ry="38.81"/>
</svg>
