<svg xmlns="http://www.w3.org/2000/svg" viewBox="0 0 140.409 142.47">
  <defs>
    <style>
      .cls-1 {
        fill: #232931;
      }

      .cls-2 {
        fill: #f73859;
      }
    </style>
  </defs>
  <g id="Group_11" data-name="Group 11" transform="translate(0.003 0.004)">
    <path id="Path_4" data-name="Path 4" class="cls-1" d="M115.132,36.77v-28a1.882,1.882,0,0,0-1.881-1.881H41.271a9.17,9.17,0,1,0-11.16,11.149V28.726L.751,51.323a1.917,1.917,0,0,0,0,3.047l29.36,22.586V87.319H15.881a1.857,1.857,0,0,0-1.858,1.858v19.262a1.857,1.857,0,0,0,1.858,1.858h14.23v14.114a9.187,9.187,0,1,0,4.593,0V110.3h14.23a1.857,1.857,0,0,0,1.858-1.858V89.177a1.857,1.857,0,0,0-1.858-1.858H34.7V76.955L63.06,55.143H85.253V67.076a1.857,1.857,0,0,0,1.858,1.858h51.438a1.857,1.857,0,0,0,1.858-1.858V38.616a1.857,1.857,0,0,0-1.858-1.858H115.132Zm-78.12,96.5a4.593,4.593,0,1,1-4.593-4.593A4.6,4.6,0,0,1,37.012,133.275ZM44.34,105.7H20.485a1.857,1.857,0,0,1-1.858-1.858V93.77a1.857,1.857,0,0,1,1.858-1.858H44.34A1.857,1.857,0,0,1,46.2,93.77v10.075A1.857,1.857,0,0,1,44.34,105.7ZM27.814,9.187a4.593,4.593,0,1,1,4.593,4.593A4.6,4.6,0,0,1,27.814,9.187ZM31.276,72.05,8.287,54.37a1.917,1.917,0,0,1,0-3.047L31.276,33.654a1.87,1.87,0,0,1,2.285,0L56.6,51.369a1.876,1.876,0,0,1,0,2.966L33.55,72.05A1.854,1.854,0,0,1,31.276,72.05ZM63.06,50.55,34.7,28.737V18.051a9.162,9.162,0,0,0,6.567-6.567h67.387a1.881,1.881,0,0,1,1.881,1.881V36.758H87.111a1.857,1.857,0,0,0-1.858,1.858V50.55Zm70.9,13.791H91.716a1.857,1.857,0,0,1-1.858-1.858V43.221a1.857,1.857,0,0,1,1.858-1.858h42.24a1.857,1.857,0,0,1,1.858,1.858V62.483A1.857,1.857,0,0,1,133.956,64.341Z" transform="translate(0 0)"/>
    <path id="Path_5" data-name="Path 5" class="cls-2" d="M82.694,39.82h35.05a.852.852,0,0,1,.854.854v2.885a.852.852,0,0,1-.854.854H82.694a.852.852,0,0,1-.854-.854V40.674A.852.852,0,0,1,82.694,39.82Z" transform="translate(12.611 6.136)"/>
    <path id="Path_6" data-name="Path 6" class="cls-2" d="M82.694,47.78H113.15a.852.852,0,0,1,.854.854v2.885a.852.852,0,0,1-.854.854H82.694a.852.852,0,0,1-.854-.854V48.634A.86.86,0,0,1,82.694,47.78Z" transform="translate(12.611 7.363)"/>
    <path id="Path_7" data-name="Path 7" class="cls-1" d="M53.84,115.023h69.788a1.877,1.877,0,0,0,1.87-1.87V75.53a1.877,1.877,0,0,0-1.87-1.87H53.84a1.877,1.877,0,0,0-1.87,1.87v37.623A1.877,1.877,0,0,0,53.84,115.023Zm4.6-36.758h60.6a1.877,1.877,0,0,1,1.87,1.87V108.56a1.877,1.877,0,0,1-1.87,1.87h-60.6a1.877,1.877,0,0,1-1.87-1.87V80.134A1.862,1.862,0,0,1,58.444,78.265Z" transform="translate(8.008 11.351)"/>
    <path id="Path_8" data-name="Path 8" class="cls-1" d="M60.852,81.63H63.61a.914.914,0,0,1,.912.912V85.3a.914.914,0,0,1-.912.912H60.852a.914.914,0,0,1-.912-.912V82.542A.914.914,0,0,1,60.852,81.63Z" transform="translate(9.236 12.579)"/>
    <path id="Path_9" data-name="Path 9" class="cls-2" d="M68.822,81.63h44.121a.914.914,0,0,1,.912.912V85.3a.914.914,0,0,1-.912.912H68.822a.914.914,0,0,1-.912-.912V82.542A.906.906,0,0,1,68.822,81.63Z" transform="translate(10.465 12.579)"/>
    <path id="Path_10" data-name="Path 10" class="cls-2" d="M68.822,89.59h44.121a.914.914,0,0,1,.912.912V93.26a.914.914,0,0,1-.912.912H68.822a.914.914,0,0,1-.912-.912V90.5A.906.906,0,0,1,68.822,89.59Z" transform="translate(10.465 13.805)"/>
    <path id="Path_11" data-name="Path 11" class="cls-1" d="M60.852,89.59H63.61a.914.914,0,0,1,.912.912V93.26a.914.914,0,0,1-.912.912H60.852a.914.914,0,0,1-.912-.912V90.5A.914.914,0,0,1,60.852,89.59Z" transform="translate(9.236 13.805)"/>
    <path id="Path_12" data-name="Path 12" class="cls-1" d="M60.852,97.56H63.61a.914.914,0,0,1,.912.912v2.758a.914.914,0,0,1-.912.912H60.852a.914.914,0,0,1-.912-.912V98.472A.906.906,0,0,1,60.852,97.56Z" transform="translate(9.236 15.034)"/>
    <path id="Path_13" data-name="Path 13" class="cls-2" d="M68.822,97.56h44.121a.914.914,0,0,1,.912.912v2.758a.914.914,0,0,1-.912.912H68.822a.914.914,0,0,1-.912-.912V98.472A.9.9,0,0,1,68.822,97.56Z" transform="translate(10.465 15.034)"/>
  </g>
</svg>
