<?xml version="1.0" encoding="utf-8"?>
<!-- Generator: Adobe Illustrator 23.0.0, SVG Export Plug-In . SVG Version: 6.00 Build 0)  -->
<svg version="1.1" id="Layer_1" xmlns="http://www.w3.org/2000/svg" xmlns:xlink="http://www.w3.org/1999/xlink" x="0px" y="0px"
	 viewBox="0 0 500 500" style="enable-background:new 0 0 500 500;" xml:space="preserve">
<style type="text/css">
	.st0{fill:#FFFFFF;}
</style>
<path class="st0" d="M478.67,293.86c-7.57,39.45-25.11,75.34-50.74,104.9v-258.9L321.56,256.2l-28.68,31.37L264.2,256.2
	L157.66,139.67v60.11l117.8,128.84l118.77-129.91v231.64c-3.38,2.58-6.84,5.08-10.39,7.49c-49.81,33.76-109.78,46.11-168.87,34.77
	c-37.13-7.13-71.12-23.08-99.64-46.31V91.87v-0.01V76.6h-0.01c5.04-4.09,10.28-7.99,15.71-11.68c47.81-32.41,104.98-45.07,161.76-36
	V2.58c-61.98-8.88-124.18,5.4-176.38,40.78C60.86,81.03,23.28,138.08,10.63,204c-12.66,65.93,1.12,132.83,38.79,188.4
	s94.72,93.14,160.65,105.79c15.97,3.07,31.99,4.58,47.91,4.58c49.77,0,98.39-14.82,140.5-43.37c34.01-23.06,61.27-53.39,80.21-88.56
	c9.08-16.86,16.25-34.84,21.33-53.67L478.67,293.86z M70.98,377.79c-33.76-49.81-46.11-109.78-34.77-168.87
	c7.04-36.66,22.68-70.25,45.42-98.54v281.87C77.92,387.59,74.36,382.77,70.98,377.79z M292.76,198.69L404.55,76.6h24l-135.7,148.25
	l-0.08-0.09L292.76,198.69L292.76,198.69z"/>
</svg>
