<?xml version="1.0" encoding="utf-8"?>
<!-- Generator: Adobe Illustrator 23.0.0, SVG Export Plug-In . SVG Version: 6.00 Build 0)  -->
<svg version="1.1" id="Layer_1" xmlns="http://www.w3.org/2000/svg" xmlns:xlink="http://www.w3.org/1999/xlink" x="0px" y="0px"
	 viewBox="0 0 265.95 270.7" style="enable-background:new 0 0 265.95 270.7;" xml:space="preserve">
<style type="text/css">
	.st0{fill:#232931;}
</style>
<path class="st0" d="M254.47,158.21c-4.08,21.24-13.52,40.56-27.32,56.48V75.29l-57.27,62.64l-15.44,16.89l-15.44-16.89L81.63,75.2
	v32.36l63.42,69.37l63.95-69.94v124.72c-1.82,1.39-3.68,2.74-5.59,4.03c-26.82,18.18-59.11,24.83-90.92,18.72
	c-19.99-3.84-38.29-12.43-53.65-24.93V49.46v0v-8.22h0c2.72-2.2,5.53-4.3,8.46-6.29c25.74-17.45,56.52-24.27,87.09-19.38V1.38
	C121.02-3.4,87.53,4.29,59.43,23.34c-29.92,20.28-50.15,51-56.96,86.49c-6.81,35.5,0.6,71.52,20.88,101.44
	c20.28,29.92,51,50.15,86.5,56.96c8.6,1.65,17.23,2.47,25.79,2.47c26.8,0,52.97-7.98,75.65-23.35
	c18.31-12.41,32.99-28.75,43.19-47.68c4.89-9.08,8.75-18.76,11.48-28.9L254.47,158.21z M34.96,203.4
	c-18.18-26.82-24.83-59.11-18.72-90.92c3.79-19.74,12.21-37.83,24.46-53.06v151.76C38.7,208.68,36.78,206.08,34.96,203.4z
	 M154.37,106.97l60.19-65.74h12.92l-73.07,79.82l-0.04-0.05V106.97z"/>
</svg>
