<?xml version="1.0" encoding="utf-8"?>
<!-- Generator: Adobe Illustrator 22.1.0, SVG Export Plug-In . SVG Version: 6.00 Build 0)  -->
<svg version="1.1" id="レイヤー_1" xmlns="http://www.w3.org/2000/svg" xmlns:xlink="http://www.w3.org/1999/xlink" x="0px"
	 y="0px" viewBox="0 0 500 500" style="enable-background:new 0 0 500 500;" xml:space="preserve">
<style type="text/css">
	.st0{fill:#706A6A;stroke:#000000;stroke-width:5;stroke-miterlimit:10;}
	.st1{fill:#393434;stroke:#000000;stroke-width:5;stroke-miterlimit:10;}
	.st2{fill:#706A6A;}
	.st3{fill:#393434;}
	.st4{fill:#948F8F;}
	.st5{fill:none;stroke:#000000;stroke-width:6;stroke-miterlimit:10;}
	.st6{fill:none;}
</style>
<g>
	<path class="st0" d="M122.4,481.9c0,0,141.9,17.1,251.9-84.9c25.4-23.5-80.2-93.3-80.2-93.3"/>
	<path class="st1" d="M288.6,307.9c0.2-0.5,0.3-0.8,0.3-0.8s-43,110.4-112.1,174.4c-2.9,2.7-54.8,0-54.8,0s30.5-97.5,36.8-109.2
		c2.5-4.6-7.2-19.6-7.2-19.6"/>
	<g id="XMLID_1_">
		<g>
			<path class="st2" d="M245.1,110.3c15.6-0.8,58.9-25.8,58.9-25.8c-17.2-25.8-47.1-48.1-103.7-10.4c16.2-23.4,37.5-48.6,62-53.3
				c90.8-17.4,76.9,25.8,77.7,125.1s-28.6,82.7-28.6,82.7s2.5,46.3-2.5,63.7c-4.9,17.4-204.5,94.8-185.7,42.5
				c26.2-72.8,9-94.1,18.8-100.9c3.5-2.4,5.7-6,7-9.5c0,0,16.7-0.4,25.7-2.7c28.5-7.2,38.4-17.4,42.9-31.5
				c4.5-16.2-5.3-31.4-5.3-31.4L245.1,110.3C245.1,110.3,245.1,110.3,245.1,110.3z"/>
			<path class="st3" d="M304,84.5c0,0-43.3,25-58.9,25.8c0.4-19.1-14.9-25.7-29.5-16.7c0,0-0.8,8.3-23.7,34.1
				c0,0-13.9-19.7-6.5-31.1c4.3-6.7,9.3-14.5,14.9-22.5C256.9,36.4,286.8,58.7,304,84.5z"/>
			<path class="st4" d="M215.7,93.6c14.5-9,29.9-2.4,29.5,16.7c0,0,0,0,0,0l-32.7,48.5c0,0,9.8,15.2,5.3,31.4
				c-25.8-27.8-84.7-13.6-84.7-13.6c0.5-7.6,7.7-13,23-20.9c31.1-15.9,36-28.1,36-28.1C214.9,101.9,215.7,93.6,215.7,93.6z"/>
			<path class="st3" d="M217.7,190.2c-4.5,14.1-14.4,24.3-42.9,31.5c-9,2.3-25.7,2.7-25.7,2.7c2.3-6.3,2-12.5,2-12.5
				c-12.1-17.4-18.6-27.4-18.1-35.3C133,176.6,191.9,162.5,217.7,190.2z"/>
		</g>
		<g>
			<path class="st5" d="M133,176.6c0.5-7.6,7.7-13,23-20.9c31.1-15.9,36-28.1,36-28.1s-13.9-19.7-6.5-31.1
				c4.3-6.7,9.3-14.5,14.9-22.5c16.2-23.4,37.5-48.6,62-53.3c90.8-17.4,76.9,25.8,77.7,125.1s-28.6,82.7-28.6,82.7
				s2.5,46.3-2.5,63.7c-4.9,17.4-204.5,94.8-185.7,42.5c26.2-72.8,9-94.1,18.8-100.9c3.5-2.4,5.7-6,7-9.5c2.3-6.3,2-12.5,2-12.5
				C139,194.6,132.4,184.5,133,176.6c0,0,58.9-14.2,84.7,13.6c-4.5,14.1-14.4,24.3-42.9,31.5c-9,2.3-25.7,2.7-25.7,2.7"/>
			<path class="st5" d="M217.7,190.2c4.5-16.2-5.3-31.4-5.3-31.4l32.7-48.5c0,0,0,0,0,0c15.6-0.8,58.9-25.8,58.9-25.8
				c-17.2-25.8-47.1-48.1-103.7-10.4"/>
			<path class="st5" d="M192,127.7c22.9-25.8,23.7-34.1,23.7-34.1c14.5-9,29.9-2.4,29.5,16.7c0,0.3,0,0.5,0,0.8"/>
		</g>
	</g>
	<g id="XMLID_2_">
		<g>
		</g>
		<g>
		</g>
	</g>
	<path class="st5" d="M289.1,307.5"/>
	<path class="st6" d="M186.6,472.6c-1.1,0.7-2.1,1.5-3.2,2.1"/>
	<path class="st6" d="M186.6,472.6"/>
</g>
</svg>
