<svg id="Group_13" data-name="Group 13" xmlns="http://www.w3.org/2000/svg" viewBox="0 0 170.69 86.691">
  <defs>
    <style>
      .cls-1 {
        fill: #232931;
      }

      .cls-2 {
        fill: #f73859;
      }
    </style>
  </defs>
  <path id="Path_19" data-name="Path 19" class="cls-1" d="M167.361,80.011H149.355c-14.99,0-22.837-12.725-31.147-26.2-6.114-9.916-12.389-20.075-21.809-24.652a16.667,16.667,0,1,0-22.051-.023C64.894,33.69,58.607,43.872,52.482,53.811c-8.31,13.476-16.157,26.2-31.147,26.2H3.329a3.334,3.334,0,0,0,0,6.669H65.449a3.328,3.328,0,1,0,0-6.657H40.312c7.431-5.813,12.829-14.574,17.844-22.7,7.6-12.332,14.793-23.981,27.194-23.981s19.59,11.65,27.194,23.981c5,8.125,10.413,16.874,17.844,22.7H93.013a3.328,3.328,0,1,0,0,6.657h74.348a3.334,3.334,0,0,0,0-6.669ZM85.385,6.669a10,10,0,1,1-10,10A10.008,10.008,0,0,1,85.385,6.669Z"/>
  <path id="Path_20" data-name="Path 20" class="cls-1" d="M69.2,69.23a3.354,3.354,0,1,0,2.358.982A3.353,3.353,0,0,0,69.2,69.23Z" transform="translate(10.256 10.781)"/>
  <path id="Path_21" data-name="Path 21" class="cls-2" d="M26.63,41.8a3.288,3.288,0,0,0,2.358-.982L44.74,25.061a3.332,3.332,0,0,0,6.507-1.005V17.179a3.329,3.329,0,0,0-3.329-3.329H41.042a3.332,3.332,0,0,0-1.005,6.507L24.272,36.109A3.329,3.329,0,0,0,26.63,41.8Z" transform="translate(3.627 2.157)"/>
  <path id="Path_22" data-name="Path 22" class="cls-2" d="M115.4,35.29A3.332,3.332,0,0,0,116.41,41.8h6.877a3.329,3.329,0,0,0,3.328-3.329V31.592a3.332,3.332,0,0,0-6.507-1.005L104.367,14.822a3.334,3.334,0,1,0-4.715,4.715Z" transform="translate(15.366 2.156)"/>
</svg>
